<?xml version="1.0" encoding="UTF-8" standalone="no"?>
<!-- Generator: Adobe Illustrator 19.1.0, SVG Export Plug-In . SVG Version: 6.00 Build 0)  -->

<svg
   xmlns:dc="http://purl.org/dc/elements/1.1/"
   xmlns:cc="http://creativecommons.org/ns#"
   xmlns:rdf="http://www.w3.org/1999/02/22-rdf-syntax-ns#"
   xmlns:svg="http://www.w3.org/2000/svg"
   xmlns="http://www.w3.org/2000/svg"
   xmlns:sodipodi="http://sodipodi.sourceforge.net/DTD/sodipodi-0.dtd"
   xmlns:inkscape="http://www.inkscape.org/namespaces/inkscape"
   version="1.1"
   id="Layer_1"
   x="0px"
   y="0px"
   viewBox="0 0 2300 3259.8425"
   xml:space="preserve"
   inkscape:version="0.91 r13725"
   sodipodi:docname="laser_cutting.svg"
   width="649.11108mm"
   height="920mm"><metadata
     id="metadata2625"><rdf:RDF><cc:Work
         rdf:about=""><dc:format>image/svg+xml</dc:format><dc:type
           rdf:resource="http://purl.org/dc/dcmitype/StillImage" /><dc:title /></cc:Work></rdf:RDF></metadata><defs
     id="defs2623" /><sodipodi:namedview
     pagecolor="#ffffff"
     bordercolor="#666666"
     borderopacity="1"
     objecttolerance="10"
     gridtolerance="10"
     guidetolerance="10"
     inkscape:pageopacity="0"
     inkscape:pageshadow="2"
     inkscape:window-width="1280"
     inkscape:window-height="756"
     id="namedview2621"
     showgrid="false"
     units="mm"
     inkscape:zoom="0.33846756"
     inkscape:cx="1230.3238"
     inkscape:cy="596.54647"
     inkscape:window-x="0"
     inkscape:window-y="23"
     inkscape:window-maximized="0"
     inkscape:current-layer="Layer_1" /><style
     type="text/css"
     id="style3">
	.st0{fill:none;stroke:#00A651;stroke-miterlimit:10;}
	.st1{fill:none;stroke:#27AAE1;stroke-width:0.25;stroke-miterlimit:10;}
	.st2{fill:none;stroke:#000000;stroke-width:0.25;stroke-miterlimit:10;}
	.st3{fill:none;stroke:#F7941E;stroke-width:0.25;stroke-miterlimit:10;}
	.st4{fill:none;stroke:#BE1E2D;stroke-width:0.25;stroke-miterlimit:10;}
	.st5{fill:none;stroke:#8DC63F;stroke-width:0.25;stroke-miterlimit:10;}
	.st6{font-family:'Helvetica-Bold';}
	.st7{font-size:51.0333px;}
	.st8{font-family:'Helvetica';}
	.st9{font-size:40.1776px;}
	.st10{font-family:'MyriadPro-Regular';}
	.st11{fill:none;stroke:#000000;stroke-width:2;stroke-miterlimit:10;}
	.st12{fill:#FFFFFF;stroke:#000000;stroke-miterlimit:10;}
	.st13{fill:none;stroke:#000000;stroke-miterlimit:10;}
	.st14{fill:none;stroke:#010101;stroke-linejoin:round;}
</style><g
     id="g5"
     style="stroke:#000000;stroke-opacity:1"
     transform="matrix(1.2492156,0,0,1.24922,-33.914902,-314.57665)"><circle
       class="st0"
       cx="1560.6"
       cy="1567"
       r="273.5"
       id="circle7"
       style="fill:none;stroke:#000000;stroke-miterlimit:10;stroke-opacity:1" /><rect
       x="1381.1"
       y="1517.5"
       class="st0"
       width="359"
       height="14.3"
       id="rect9"
       style="fill:none;stroke:#000000;stroke-miterlimit:10;stroke-opacity:1" /></g><ellipse
     class="st0"
     cx="1164.8324"
     cy="1642.9509"
     id="circle11"
     style="fill:none;stroke:#000000;stroke-width:1.24921787;stroke-miterlimit:10;stroke-opacity:1"
     rx="341.66049"
     ry="341.66165" /><ellipse
     class="st0"
     cx="383.82275"
     cy="1642.9509"
     id="circle13"
     style="fill:none;stroke:#000000;stroke-width:1.24921787;stroke-miterlimit:10;stroke-opacity:1"
     rx="354.15265"
     ry="354.15387" /><g
     id="g15"
     style="stroke:#000000;stroke-opacity:1"
     transform="matrix(1.2479183,0,0,1.2722089,-84.136799,-130.15231)"><g
       id="g17"
       style="stroke:#000000;stroke-opacity:1"><path
         class="st1"
         d="m 1075.5,924.9 c 7.9,-13.7 24.9,-18.9 39,-12.4 5.2,-15.4 8.1,-32 8.1,-49.1 0,-17.1 -2.8,-33.5 -7.9,-48.8 -14.1,6.5 -31,1.3 -38.9,-12.4 -7.9,-13.7 -3.9,-31 8.7,-39.9 -21.7,-24.7 -51.2,-42.3 -84.7,-49.1 -1.5,15.4 -14.4,27.5 -30.2,27.5 -15.8,0 -28.8,-12.1 -30.2,-27.5 -33.5,6.7 -63.1,24.2 -84.8,48.9 12.6,9 16.5,26.2 8.7,39.9 -7.9,13.7 -24.9,18.9 -39,12.4 -5.2,15.4 -8.1,32 -8.1,49.1 0,17.1 2.8,33.5 7.9,48.8 14.1,-6.5 31,-1.3 38.9,12.4 7.9,13.7 3.9,31 -8.7,39.9 21.7,24.7 51.2,42.3 84.7,49.1 1.5,-15.4 14.4,-27.5 30.2,-27.5 15.8,0 28.8,12.1 30.2,27.5 33.5,-6.7 63.1,-24.2 84.8,-48.9 -12.7,-9 -16.6,-26.2 -8.7,-39.9 z"
         id="path19"
         style="fill:none;stroke:#000000;stroke-width:0.25;stroke-miterlimit:10;stroke-opacity:1"
         inkscape:connector-curvature="0" /><path
         class="st1"
         d="m 939.3,713.2 c 1.4,15.4 14.4,27.5 30.2,27.5 15.8,0 28.7,-12.1 30.2,-27.5"
         id="path21"
         style="fill:none;stroke:#000000;stroke-width:0.25;stroke-miterlimit:10;stroke-opacity:1"
         inkscape:connector-curvature="0" /><path
         class="st1"
         d="m 824.2,814.3 c 14.1,6.5 31.1,1.3 39,-12.4 7.9,-13.7 3.9,-30.9 -8.7,-39.9"
         id="path23"
         style="fill:none;stroke:#000000;stroke-width:0.25;stroke-miterlimit:10;stroke-opacity:1"
         inkscape:connector-curvature="0" /><path
         class="st1"
         d="m 854.2,964.5 c 12.6,-9 16.6,-26.2 8.7,-39.9 C 855,910.9 838.1,905.7 824,912.2"
         id="path25"
         style="fill:none;stroke:#000000;stroke-width:0.25;stroke-miterlimit:10;stroke-opacity:1"
         inkscape:connector-curvature="0" /><path
         class="st1"
         d="m 999.3,1013.7 c -1.4,-15.4 -14.4,-27.5 -30.2,-27.5 -15.8,0 -28.7,12.1 -30.2,27.5"
         id="path27"
         style="fill:none;stroke:#000000;stroke-width:0.25;stroke-miterlimit:10;stroke-opacity:1"
         inkscape:connector-curvature="0" /><path
         class="st1"
         d="m 1114.4,912.6 c -14.1,-6.5 -31.1,-1.3 -39,12.4 -7.9,13.7 -3.9,30.9 8.7,39.9"
         id="path29"
         style="fill:none;stroke:#000000;stroke-width:0.25;stroke-miterlimit:10;stroke-opacity:1"
         inkscape:connector-curvature="0" /><path
         class="st1"
         d="m 1084.4,762.3 c -12.6,9 -16.6,26.2 -8.7,39.9 7.9,13.7 24.8,18.9 38.9,12.4"
         id="path31"
         style="fill:none;stroke:#000000;stroke-width:0.25;stroke-miterlimit:10;stroke-opacity:1"
         inkscape:connector-curvature="0" /></g><g
       id="g33"
       style="stroke:#000000;stroke-opacity:1"><circle
         class="st1"
         cx="969.29999"
         cy="863.40002"
         r="7.0999999"
         id="circle35"
         style="fill:none;stroke:#000000;stroke-width:0.25;stroke-miterlimit:10;stroke-opacity:1" /><circle
         class="st1"
         cx="969.20001"
         cy="845.20001"
         r="4.3000002"
         id="circle37"
         style="fill:none;stroke:#000000;stroke-width:0.25;stroke-miterlimit:10;stroke-opacity:1" /><circle
         class="st1"
         cx="951.09998"
         cy="863.5"
         r="4.3000002"
         id="circle39"
         style="fill:none;stroke:#000000;stroke-width:0.25;stroke-miterlimit:10;stroke-opacity:1" /><circle
         class="st1"
         cx="969.40002"
         cy="881.59998"
         r="4.3000002"
         id="circle41"
         style="fill:none;stroke:#000000;stroke-width:0.25;stroke-miterlimit:10;stroke-opacity:1" /><circle
         class="st1"
         cx="987.5"
         cy="863.29999"
         r="4.3000002"
         id="circle43"
         style="fill:none;stroke:#000000;stroke-width:0.25;stroke-miterlimit:10;stroke-opacity:1" /></g></g><path
     class="st2"
     d="M 1695.7,-486.45734"
     id="path45"
     inkscape:connector-curvature="0"
     style="fill:none;stroke:#000000;stroke-width:0.25;stroke-miterlimit:10" /><path
     class="st2"
     d="M 1695.7,-486.45734"
     id="path47"
     inkscape:connector-curvature="0"
     style="fill:none;stroke:#000000;stroke-width:0.25;stroke-miterlimit:10" /><g
     id="g49"
     style="stroke:#000000;stroke-opacity:1"
     transform="matrix(1.2492165,0,0,1.2492091,-78.09074,-6.9304523)"><g
       id="g51"
       style="stroke:#000000;stroke-opacity:1"><circle
         class="st3"
         cx="599.20001"
         cy="360.39999"
         r="170.10001"
         id="circle53"
         style="fill:none;stroke:#000000;stroke-width:0.25;stroke-miterlimit:10;stroke-opacity:1" /><rect
         x="422"
         y="183.3"
         class="st3"
         width="354.29999"
         height="354.29999"
         id="rect55"
         style="fill:none;stroke:#000000;stroke-width:0.25;stroke-miterlimit:10;stroke-opacity:1" /></g><circle
       class="st4"
       cx="450.29999"
       cy="211.60001"
       r="5.6999998"
       id="circle57"
       style="fill:none;stroke:#000000;stroke-width:0.25;stroke-miterlimit:10;stroke-opacity:1" /><circle
       class="st4"
       cx="748"
       cy="211.60001"
       r="5.6999998"
       id="circle59"
       style="fill:none;stroke:#000000;stroke-width:0.25;stroke-miterlimit:10;stroke-opacity:1" /><circle
       class="st4"
       cx="748"
       cy="509.20001"
       r="5.6999998"
       id="circle61"
       style="fill:none;stroke:#000000;stroke-width:0.25;stroke-miterlimit:10;stroke-opacity:1" /><circle
       class="st4"
       cx="450.29999"
       cy="509.20001"
       r="5.6999998"
       id="circle63"
       style="fill:none;stroke:#000000;stroke-width:0.25;stroke-miterlimit:10;stroke-opacity:1" /></g><g
     id="g65"
     style="stroke:#000000;stroke-opacity:1"
     transform="matrix(1.2492165,0,0,1.2492091,-78.09074,-6.9304523)"><g
       id="g67"
       style="stroke:#000000;stroke-opacity:1"><path
         class="st5"
         d="m 853.6,360.6 c 0,-51.9 33.5,-96 80,-111.8 3,-1 31.2,12.5 38,12.5 5.5,0 31,-14.7 34,-13.8 48.7,14.6 84.2,59.7 84.2,113.1 0,65.2 -52.9,118.1 -118.1,118.1 -65.2,0 -118.1,-52.9 -118.1,-118.1 z"
         id="path69"
         style="fill:none;stroke:#000000;stroke-width:0.25;stroke-miterlimit:10;stroke-opacity:1"
         inkscape:connector-curvature="0" /><path
         class="st5"
         d="m 939,211.1 c 0,-8.5 65.3,-8.5 65.3,0 0,17.5 -15.2,30.7 -32.7,30.7 C 954.1,241.7 939,228.5 939,211.1 Z"
         id="path71"
         style="fill:none;stroke:#000000;stroke-width:0.25;stroke-miterlimit:10;stroke-opacity:1"
         inkscape:connector-curvature="0" /><rect
         x="794.5"
         y="183.3"
         class="st5"
         width="354.29999"
         height="354.29999"
         id="rect73"
         style="fill:none;stroke:#000000;stroke-width:0.25;stroke-miterlimit:10;stroke-opacity:1" /></g><circle
       class="st5"
       cx="822.79999"
       cy="211.60001"
       r="5.6999998"
       id="circle75"
       style="fill:none;stroke:#000000;stroke-width:0.25;stroke-miterlimit:10;stroke-opacity:1" /><circle
       class="st5"
       cx="1120.5"
       cy="211.60001"
       r="5.6999998"
       id="circle77"
       style="fill:none;stroke:#000000;stroke-width:0.25;stroke-miterlimit:10;stroke-opacity:1" /><circle
       class="st5"
       cx="1120.5"
       cy="509.20001"
       r="5.6999998"
       id="circle79"
       style="fill:none;stroke:#000000;stroke-width:0.25;stroke-miterlimit:10;stroke-opacity:1" /><circle
       class="st5"
       cx="822.79999"
       cy="509.20001"
       r="5.6999998"
       id="circle81"
       style="fill:none;stroke:#000000;stroke-width:0.25;stroke-miterlimit:10;stroke-opacity:1" /></g><g
     id="g83"
     style="stroke:#000000;stroke-opacity:1"
     transform="matrix(1.2492165,0,0,1.2492091,-78.09074,-6.9304523)"><path
       class="st4"
       d="m 1157.6,183.3 0,354.3 354.3,0 0,-354.3 -354.3,0 z m 326,22.6 c 3.1,0 5.7,2.5 5.7,5.7 0,3.2 -2.5,5.7 -5.7,5.7 -3.1,0 -5.7,-2.5 -5.7,-5.7 0,-3.2 2.6,-5.7 5.7,-5.7 z m -297.7,0 c 3.1,0 5.7,2.5 5.7,5.7 0,3.2 -2.5,5.7 -5.7,5.7 -3.1,0 -5.7,-2.5 -5.7,-5.7 0,-3.2 2.6,-5.7 5.7,-5.7 z m 0,309 c -3.1,0 -5.7,-2.5 -5.7,-5.7 0,-3.1 2.5,-5.7 5.7,-5.7 3.1,0 5.7,2.5 5.7,5.7 0,3.2 -2.5,5.7 -5.7,5.7 z m 297.7,0 c -3.1,0 -5.7,-2.5 -5.7,-5.7 0,-3.1 2.5,-5.7 5.7,-5.7 3.1,0 5.7,2.5 5.7,5.7 0,3.2 -2.5,5.7 -5.7,5.7 z m 0.9,-109.9 m -0.7,-91.7"
       id="path85"
       style="fill:none;stroke:#000000;stroke-width:0.25;stroke-miterlimit:10;stroke-opacity:1"
       inkscape:connector-curvature="0" /><circle
       class="st4"
       cx="1185.9"
       cy="211.60001"
       r="5.6999998"
       id="circle87"
       style="fill:none;stroke:#000000;stroke-width:0.25;stroke-miterlimit:10;stroke-opacity:1" /><circle
       class="st4"
       cx="1483.6"
       cy="211.60001"
       r="5.6999998"
       id="circle89"
       style="fill:none;stroke:#000000;stroke-width:0.25;stroke-miterlimit:10;stroke-opacity:1" /><circle
       class="st4"
       cx="1483.6"
       cy="509.20001"
       r="5.6999998"
       id="circle91"
       style="fill:none;stroke:#000000;stroke-width:0.25;stroke-miterlimit:10;stroke-opacity:1" /><circle
       class="st4"
       cx="1185.9"
       cy="509.20001"
       r="5.6999998"
       id="circle93"
       style="fill:none;stroke:#000000;stroke-width:0.25;stroke-miterlimit:10;stroke-opacity:1" /><path
       class="st4"
       d="m 1334.8,279.9 c 15.8,0 56.7,33.3 56.7,33.3 l 92.3,0 c -20,-63.2 -79.1,-109.1 -149,-109.1 -69.9,0 -129,45.8 -149,109.1 l 92.3,0 c 0,0.1 40.8,-33.3 56.7,-33.3 z"
       id="path95"
       style="fill:none;stroke:#000000;stroke-width:0.25;stroke-miterlimit:10;stroke-opacity:1"
       inkscape:connector-curvature="0" /><path
       class="st4"
       d="m 1334.8,438.4 c -15.8,0 -56.7,-33.3 -56.7,-33.3 l -93.1,0 c 19.2,64.6 79,111.7 149.8,111.7 70.8,0 130.6,-47.1 149.8,-111.7 l -93.1,0 c 0,-0.1 -40.9,33.3 -56.7,33.3 z"
       id="path97"
       style="fill:none;stroke:#000000;stroke-width:0.25;stroke-miterlimit:10;stroke-opacity:1"
       inkscape:connector-curvature="0" /><path
       class="st4"
       d="m 1273.2,364 c -2,0 -3.5,-1.6 -3.5,-3.5 0,-2 1.6,-3.5 3.5,-3.5 2,0 3.5,1.6 3.5,3.5 0.1,1.9 -1.5,3.5 -3.5,3.5 z m 61.7,-68.8 c 2,0 3.5,1.6 3.5,3.5 0,2 -1.6,3.5 -3.5,3.5 -2,0 -3.5,-1.6 -3.5,-3.5 -0.1,-1.9 1.5,-3.5 3.5,-3.5 z m 0,130.4 c -2,0 -3.5,-1.6 -3.5,-3.5 0,-2 1.6,-3.5 3.5,-3.5 2,0 3.5,1.6 3.5,3.5 0,1.9 -1.6,3.5 -3.5,3.5 z m 0,-36.9 c -15.6,0 -28.3,-12.7 -28.3,-28.3 0,-15.6 12.7,-28.3 28.3,-28.3 15.6,0 28.3,12.7 28.3,28.3 -0.1,15.6 -12.7,28.3 -28.3,28.3 z m 61.6,-24.7 c -2,0 -3.5,-1.6 -3.5,-3.5 0,-2 1.6,-3.5 3.5,-3.5 2,0 3.5,1.6 3.5,3.5 0.1,1.9 -1.5,3.5 -3.5,3.5 z"
       id="path99"
       style="fill:none;stroke:#000000;stroke-width:0.25;stroke-miterlimit:10;stroke-opacity:1"
       inkscape:connector-curvature="0" /><circle
       class="st4"
       cx="1334.9"
       cy="360.39999"
       r="28.799999"
       id="circle101"
       style="fill:none;stroke:#000000;stroke-width:0.25;stroke-miterlimit:10;stroke-opacity:1" /><circle
       class="st4"
       cx="1273.2"
       cy="360.39999"
       r="3.5"
       id="circle103"
       style="fill:none;stroke:#000000;stroke-width:0.25;stroke-miterlimit:10;stroke-opacity:1" /><circle
       class="st4"
       cx="1396.5"
       cy="360.39999"
       r="3.5"
       id="circle105"
       style="fill:none;stroke:#000000;stroke-width:0.25;stroke-miterlimit:10;stroke-opacity:1" /><circle
       class="st4"
       cx="1334.9"
       cy="422.10001"
       r="3.5"
       id="circle107"
       style="fill:none;stroke:#000000;stroke-width:0.25;stroke-miterlimit:10;stroke-opacity:1" /><circle
       class="st4"
       cx="1334.9"
       cy="298.79999"
       r="3.5"
       id="circle109"
       style="fill:none;stroke:#000000;stroke-width:0.25;stroke-miterlimit:10;stroke-opacity:1" /></g><text
     class="st6 st7"
     id="text111"
     style="font-size:51.03329849px;font-family:Helvetica-Bold"
     x="577.8515"
     y="82.748169">Components for laser cutting (Plexiglas XT)</text>
<text
     class="st8 st9"
     id="text113"
     style="font-size:40.17760086px;font-family:Helvetica;stroke:#000000;stroke-opacity:1"
     x="570.73553"
     y="131.94038"><tspan
       style="font-style:normal;font-variant:normal;font-weight:300;font-stretch:normal;font-size:37.50000381px;font-family:Helvetica;-inkscape-font-specification:'Helvetica Light'"
       id="tspan6894">(f) and (g) are 6 mm thick and other components are all 3 mm thick</tspan></text>
<line
     class="st11"
     x1="-0.00012207033"
     y1="746.05524"
     x2="2299.9998"
     y2="746.05524"
     id="line145"
     style="fill:none;stroke:#000000;stroke-width:2.18990016;stroke-miterlimit:10" /><line
     class="st11"
     x1="-0.00012207033"
     y1="1249.2803"
     x2="2299.9998"
     y2="1249.2803"
     id="line147"
     style="fill:none;stroke:#000000;stroke-width:2.18990016;stroke-miterlimit:10" /><line
     class="st11"
     x1="0"
     y1="2252.032"
     x2="2300.0002"
     y2="2252.032"
     id="line151"
     style="fill:none;stroke:#000000;stroke-width:2.18990016;stroke-miterlimit:10" /><path
     style="fill:#ffffff;stroke:#000000;stroke-width:1.2491926;stroke-miterlimit:10"
     inkscape:connector-curvature="0"
     id="path157"
     d="m 800.10776,2280.4454 0,708.2922 708.16724,0 0,-708.2922 -708.16724,0 z"
     class="st12" /><path
     style="fill:none;stroke:#000000;stroke-width:1.23797286;stroke-miterlimit:10"
     inkscape:connector-curvature="0"
     id="path159"
     d="m 1153.696,2893.8046 c -36.3538,0 -53.9125,-39.2896 -53.9125,-78.9512 0,-39.6614 17.5587,-66.6809 53.9125,-66.6809 36.3537,0 53.9125,27.0195 53.9125,66.6809 0,39.6616 -17.5588,78.9512 -53.9125,78.9512 z"
     class="st13" /><text
     xml:space="preserve"
     style="font-style:normal;font-variant:normal;font-weight:normal;font-stretch:normal;font-size:12px;line-height:125%;font-family:Helvetica;-inkscape-font-specification:Helvetica;letter-spacing:0px;word-spacing:0px;fill:#000000;fill-opacity:1;stroke:none;stroke-width:1px;stroke-linecap:butt;stroke-linejoin:miter;stroke-opacity:1"
     x="667.05707"
     y="3095.4585"
     id="text6774"
     sodipodi:linespacing="125%"><tspan
       sodipodi:role="line"
       id="tspan6776"
       x="667.05707"
       y="3095.4585"
       style="font-style:normal;font-variant:normal;font-weight:normal;font-stretch:normal;font-size:40.00000381px;font-family:Helvetica;-inkscape-font-specification:Helvetica">The above big square is not for cutting but representing </tspan><tspan
       sodipodi:role="line"
       x="667.05707"
       y="3145.4585"
       style="font-style:normal;font-variant:normal;font-weight:normal;font-stretch:normal;font-size:40.00000381px;font-family:Helvetica;-inkscape-font-specification:Helvetica"
       id="tspan6778">the outer container tube ordered from Evonik industries.</tspan><tspan
       sodipodi:role="line"
       x="667.05707"
       y="3195.4585"
       style="font-style:normal;font-variant:normal;font-weight:normal;font-stretch:normal;font-size:40.00000381px;font-family:Helvetica;-inkscape-font-specification:Helvetica"
       id="tspan6780">The oval opening is for cutting a hole for food dispensing tube.</tspan></text>
<text
     xml:space="preserve"
     style="font-style:normal;font-weight:normal;font-size:12px;line-height:125%;font-family:'Times New Roman';-inkscape-font-specification:'Times New Roman';letter-spacing:0px;word-spacing:0px;fill:#000000;fill-opacity:1;stroke:none;stroke-width:1px;stroke-linecap:butt;stroke-linejoin:miter;stroke-opacity:1"
     x="643.98401"
     y="708.04974"
     id="text6782"
     sodipodi:linespacing="125%"><tspan
       sodipodi:role="line"
       id="tspan6784"
       x="643.98401"
       y="708.04974"
       style="font-style:normal;font-variant:normal;font-weight:normal;font-stretch:normal;font-size:40.17500305px;font-family:Helvetica;-inkscape-font-specification:Helvetica">(a)</tspan></text>
<text
     xml:space="preserve"
     style="font-style:normal;font-weight:normal;font-size:40px;line-height:125%;font-family:'Times New Roman';-inkscape-font-specification:'Times New Roman';letter-spacing:0px;word-spacing:0px;fill:#000000;fill-opacity:1;stroke:none;stroke-width:1px;stroke-linecap:butt;stroke-linejoin:miter;stroke-opacity:1"
     x="693.07318"
     y="2063.3186"
     id="text6798"
     sodipodi:linespacing="125%"><tspan
       sodipodi:role="line"
       id="tspan6800"
       x="693.07318"
       y="2063.3186" /><tspan
       sodipodi:role="line"
       x="693.07318"
       y="2113.0723"
       style="font-style:normal;font-variant:normal;font-weight:normal;font-stretch:normal;font-size:40.00000381px;font-family:Helvetica;-inkscape-font-specification:Helvetica"
       id="tspan4219">Two of the piece (e) are required </tspan><tspan
       sodipodi:role="line"
       x="693.07318"
       y="2163.0723"
       style="font-style:normal;font-variant:normal;font-weight:normal;font-stretch:normal;font-size:40.00000381px;font-family:Helvetica;-inkscape-font-specification:Helvetica"
       id="tspan4229">to make a top plate by glueing (e) and (f) with Acrifix,</tspan><tspan
       sodipodi:role="line"
       x="693.07318"
       y="2213.0723"
       id="tspan6804"
       style="font-style:normal;font-variant:normal;font-weight:normal;font-stretch:normal;font-size:40.00000381px;font-family:Helvetica;-inkscape-font-specification:Helvetica">and a bottom plate by glueing (e) and (g) with Acrifix</tspan></text>
<text
     xml:space="preserve"
     style="font-style:normal;font-weight:normal;font-size:12px;line-height:125%;font-family:'Times New Roman';-inkscape-font-specification:'Times New Roman';letter-spacing:0px;word-spacing:0px;fill:#000000;fill-opacity:1;stroke:none;stroke-width:1px;stroke-linecap:butt;stroke-linejoin:miter;stroke-opacity:1"
     x="1110.6647"
     y="708.05145"
     id="text6782-5"
     sodipodi:linespacing="125%"><tspan
       sodipodi:role="line"
       id="tspan6784-4"
       x="1110.6647"
       y="708.05145"
       style="font-style:normal;font-variant:normal;font-weight:normal;font-stretch:normal;font-size:40.17500305px;font-family:Helvetica;-inkscape-font-specification:Helvetica">(b)</tspan></text>
<text
     xml:space="preserve"
     style="font-style:normal;font-weight:normal;font-size:12px;line-height:125%;font-family:'Times New Roman';-inkscape-font-specification:'Times New Roman';letter-spacing:0px;word-spacing:0px;fill:#000000;fill-opacity:1;stroke:none;stroke-width:1px;stroke-linecap:butt;stroke-linejoin:miter;stroke-opacity:1"
     x="1565.5753"
     y="708.05145"
     id="text6782-1"
     sodipodi:linespacing="125%"><tspan
       sodipodi:role="line"
       id="tspan6784-9"
       x="1565.5753"
       y="708.05145"
       style="font-style:normal;font-variant:normal;font-weight:normal;font-stretch:normal;font-size:40.17500305px;font-family:Helvetica;-inkscape-font-specification:Helvetica">(c)</tspan></text>
<text
     xml:space="preserve"
     style="font-style:normal;font-weight:normal;font-size:12px;line-height:125%;font-family:'Times New Roman';-inkscape-font-specification:'Times New Roman';letter-spacing:0px;word-spacing:0px;fill:#000000;fill-opacity:1;stroke:none;stroke-width:1px;stroke-linecap:butt;stroke-linejoin:miter;stroke-opacity:1"
     x="1101.1656"
     y="1214.6515"
     id="text6782-1-8"
     sodipodi:linespacing="125%"><tspan
       sodipodi:role="line"
       id="tspan6784-9-9"
       x="1101.1656"
       y="1214.6515"
       style="font-style:normal;font-variant:normal;font-weight:normal;font-stretch:normal;font-size:40.17500305px;font-family:Helvetica;-inkscape-font-specification:Helvetica">(d)</tspan></text>
<text
     xml:space="preserve"
     style="font-style:normal;font-weight:normal;font-size:12px;line-height:125%;font-family:'Times New Roman';-inkscape-font-specification:'Times New Roman';letter-spacing:0px;word-spacing:0px;fill:#000000;fill-opacity:1;stroke:none;stroke-width:1px;stroke-linecap:butt;stroke-linejoin:miter;stroke-opacity:1"
     x="357.55621"
     y="2052.751"
     id="text6782-1-4"
     sodipodi:linespacing="125%"><tspan
       sodipodi:role="line"
       id="tspan6784-9-4"
       x="357.55621"
       y="2052.751"
       style="font-style:normal;font-variant:normal;font-weight:normal;font-stretch:normal;font-size:40.17500305px;font-family:Helvetica;-inkscape-font-specification:Helvetica">(e)</tspan></text>
<text
     xml:space="preserve"
     style="font-style:normal;font-weight:normal;font-size:12px;line-height:125%;font-family:'Times New Roman';-inkscape-font-specification:'Times New Roman';letter-spacing:0px;word-spacing:0px;fill:#000000;fill-opacity:1;stroke:none;stroke-width:1px;stroke-linecap:butt;stroke-linejoin:miter;stroke-opacity:1"
     x="1142.3282"
     y="2052.7522"
     id="text6782-1-0"
     sodipodi:linespacing="125%"><tspan
       sodipodi:role="line"
       id="tspan6784-9-3"
       x="1142.3282"
       y="2052.7522"
       style="font-style:normal;font-variant:normal;font-weight:normal;font-stretch:normal;font-size:40.17500305px;font-family:Helvetica;-inkscape-font-specification:Helvetica">(f)</tspan></text>
<text
     xml:space="preserve"
     style="font-style:normal;font-weight:normal;font-size:12px;line-height:125%;font-family:'Times New Roman';-inkscape-font-specification:'Times New Roman';letter-spacing:0px;word-spacing:0px;fill:#000000;fill-opacity:1;stroke:none;stroke-width:1px;stroke-linecap:butt;stroke-linejoin:miter;stroke-opacity:1"
     x="1889.2557"
     y="2052.0654"
     id="text6782-1-3"
     sodipodi:linespacing="125%"><tspan
       sodipodi:role="line"
       id="tspan6784-9-93"
       x="1889.2557"
       y="2052.0654"
       style="font-style:normal;font-variant:normal;font-weight:normal;font-stretch:normal;font-size:40.17500305px;font-family:Helvetica;-inkscape-font-specification:Helvetica">(g)</tspan></text>
<text
     xml:space="preserve"
     style="font-style:normal;font-weight:normal;font-size:12px;line-height:125%;font-family:'Times New Roman';-inkscape-font-specification:'Times New Roman';letter-spacing:0px;word-spacing:0px;fill:#000000;fill-opacity:1;stroke:none;stroke-width:1px;stroke-linecap:butt;stroke-linejoin:miter;stroke-opacity:1"
     x="1127.1741"
     y="3039.2231"
     id="text6782-1-1"
     sodipodi:linespacing="125%"><tspan
       sodipodi:role="line"
       id="tspan6784-9-35"
       x="1127.1741"
       y="3039.2231"
       style="font-style:normal;font-variant:normal;font-weight:normal;font-stretch:normal;font-size:40.17500305px;font-family:Helvetica;-inkscape-font-specification:Helvetica">(h)</tspan></text>
<text
     xml:space="preserve"
     style="color:#000000;font-style:normal;font-variant:normal;font-weight:normal;font-stretch:normal;font-size:15px;line-height:125%;font-family:sans-serif;text-indent:0;text-align:start;text-decoration:none;text-decoration-line:none;text-decoration-style:solid;text-decoration-color:#000000;letter-spacing:0px;word-spacing:0px;text-transform:none;direction:ltr;block-progression:tb;writing-mode:lr-tb;baseline-shift:baseline;text-anchor:start;white-space:normal;clip-rule:nonzero;display:inline;overflow:visible;visibility:visible;opacity:1;isolation:auto;mix-blend-mode:normal;color-interpolation:sRGB;color-interpolation-filters:linearRGB;solid-color:#000000;solid-opacity:1;fill:#000000;fill-opacity:1;fill-rule:nonzero;stroke:none;stroke-width:1px;stroke-linecap:butt;stroke-linejoin:miter;stroke-miterlimit:4;stroke-dasharray:none;stroke-dashoffset:0;stroke-opacity:1;color-rendering:auto;image-rendering:auto;shape-rendering:auto;text-rendering:auto;enable-background:accumulate"
     x="73.86232"
     y="3215.5251"
     id="text4219"
     sodipodi:linespacing="125%"><tspan
       sodipodi:role="line"
       id="tspan4221"
       x="73.86232"
       y="3215.5251" /></text>
<text
     xml:space="preserve"
     style="color:#000000;font-style:normal;font-variant:normal;font-weight:normal;font-stretch:normal;font-size:15px;line-height:125%;font-family:sans-serif;text-indent:0;text-align:start;text-decoration:none;text-decoration-line:none;text-decoration-style:solid;text-decoration-color:#000000;letter-spacing:0px;word-spacing:0px;text-transform:none;direction:ltr;block-progression:tb;writing-mode:lr-tb;baseline-shift:baseline;text-anchor:start;white-space:normal;clip-rule:nonzero;display:inline;overflow:visible;visibility:visible;opacity:1;isolation:auto;mix-blend-mode:normal;color-interpolation:sRGB;color-interpolation-filters:linearRGB;solid-color:#000000;solid-opacity:1;fill:#000000;fill-opacity:1;fill-rule:nonzero;stroke:none;stroke-width:1px;stroke-linecap:butt;stroke-linejoin:miter;stroke-miterlimit:4;stroke-dasharray:none;stroke-dashoffset:0;stroke-opacity:1;color-rendering:auto;image-rendering:auto;shape-rendering:auto;text-rendering:auto;enable-background:accumulate"
     x="1811.1041"
     y="3253.0701"
     id="text4223"
     sodipodi:linespacing="125%"><tspan
       sodipodi:role="line"
       id="tspan4225"
       x="1811.1041"
       y="3253.0701"
       style="font-size:30px">Licensed under CERN OHL v.1.2</tspan></text>
</svg>